<svg xmlns="http://www.w3.org/2000/svg" viewBox="0 0 32 32">
  <!-- Constellation badge — circle with four-colour swoops and central star -->
  <circle cx="16" cy="16" r="15" fill="#1a2a42"/>

  <!-- Four swooping ribbons -->
  <path d="M16 16 Q6 8 4 16 Q6 24 16 28 Q10 22 16 16Z" fill="#2f4c79" opacity="0.9"/>
  <path d="M16 16 Q8 4 16 4 Q22 4 28 10 Q22 8 16 16Z" fill="#d7ab61" opacity="0.9"/>
  <path d="M16 16 Q26 8 28 16 Q26 22 20 28 Q22 20 16 16Z" fill="#e06236" opacity="0.9"/>
  <path d="M16 16 Q24 26 16 28 Q10 28 4 22 Q10 24 16 16Z" fill="#c82337" opacity="0.9"/>

  <!-- Central 4-pointed star -->
  <path d="M16 11 L17 15 L21 16 L17 17 L16 21 L15 17 L11 16 L15 15Z" fill="white"/>

  <!-- Circle border -->
  <circle cx="16" cy="16" r="15" fill="none" stroke="rgba(215,171,97,0.4)" stroke-width="0.5"/>
</svg>
